<?xml version="1.0" encoding="UTF-8"?>
<svg version="1.1" xmlns="http://www.w3.org/2000/svg" width="512" height="512">
<path d="M0 0 C1.69497448 1.63786967 3.36231236 3.30484964 5 5 C5.9860543 5.90530129 6.97996253 6.80210269 7.98046875 7.69140625 C15.3947952 14.30965607 21.89018224 21.12954865 28 29 C28.72058594 29.91652344 29.44117188 30.83304688 30.18359375 31.77734375 C42.30987626 47.75469519 42.30987626 47.75469519 41.84375 54.140625 C40.83969987 56.35325399 39.69495067 57.63511542 37.9375 59.3125 C37.38964844 59.84488281 36.84179688 60.37726563 36.27734375 60.92578125 C34.31806829 62.71030144 32.32757357 64.44207873 30.3203125 66.171875 C25.66277943 70.23462305 21.29522483 74.55759846 16.9375 78.9375 C16.17373047 79.69740234 15.40996094 80.45730469 14.62304688 81.24023438 C10.4326511 85.43779935 6.40313016 89.71455081 2.55273438 94.22680664 C0.16432437 96.9543258 -2.40569041 99.46896626 -5 102 C-5.99 101.67 -6.98 101.34 -8 101 C-8.12375 99.99582031 -8.2475 98.99164063 -8.375 97.95703125 C-10.71578334 81.57356233 -19.92668942 66.8764029 -32.93359375 56.46484375 C-46.90610012 46.55994793 -62.28188218 38.59415382 -79.84375 41.46484375 C-98.41651226 45.50968502 -110.94947601 58.63924567 -123.8125 71.6875 C-125.02491528 72.90997682 -126.23780329 74.131985 -127.45117188 75.35351562 C-129.67455824 77.59307428 -131.89519749 79.8352771 -134.11254883 82.08081055 C-136.73126569 84.73107113 -139.36327798 87.3676318 -142 90 C-143.32561849 91.32542317 -144.65112783 92.6509555 -145.9765625 93.9765625 C-170.02278646 118.02278646 -194.06901042 142.06901042 -218.11523438 166.11523438 C-219.12642838 167.12679848 -219.12642838 167.12679848 -220.15805054 168.15879822 C-221.29426304 169.29454952 -222.43131327 170.42946432 -223.56973267 171.56300354 C-235.56475422 183.51134286 -243.90908163 198.85420399 -244.375 216 C-243.95560019 232.04204276 -237.15056923 244.74541427 -226 256 C-225.154375 256.9075 -224.30875 257.815 -223.4375 258.75 C-212.61659559 268.73852715 -198.9138513 275.88686247 -183.828125 275.3515625 C-162.64635303 272.7184693 -147.56537978 262.1575617 -132.98921585 247.12301445 C-131.24803521 245.32881723 -129.49570833 243.54618697 -127.74008179 241.76612854 C-122.7586347 236.71198184 -117.79529952 231.64030667 -112.84423828 226.55639648 C-109.79680535 223.42876617 -106.73502968 220.31578999 -103.66389084 217.21144295 C-102.50114218 216.03007462 -101.34411686 214.84304463 -100.19301224 213.65032768 C-98.59209155 211.99194058 -96.97369123 210.35270409 -95.35009766 208.71655273 C-94.43507477 207.77915756 -93.52005188 206.84176239 -92.57730103 205.8759613 C-90 204 -90 204 -87.33383179 204.13734436 C-84.65313686 205.12821123 -82.04524926 206.2041738 -79.4375 207.375 C-73.39484285 209.94776323 -67.40472113 211.6046548 -61 213 C-60.09894531 213.21785156 -59.19789063 213.43570313 -58.26953125 213.66015625 C-57.41746094 213.85480469 -56.56539062 214.04945313 -55.6875 214.25 C-54.94886719 214.42015625 -54.21023437 214.5903125 -53.44921875 214.765625 C-50.17110006 215.07932057 -47.24915505 214.5210909 -44 214 C-42.6716034 213.85845905 -41.34206811 213.7272962 -40.01171875 213.60546875 C-29.10482831 212.56587822 -18.64113754 210.59110441 -8 208 C-8 212 -8 212 -9.94726562 214.19726562 C-10.96311062 215.13339463 -11.98096388 216.06734575 -13 217 C-14.36163031 218.35058679 -15.71717705 219.70732003 -17.06835938 221.06835938 C-27.35611979 231.35611979 -37.64388021 241.64388021 -47.93164062 251.93164062 C-48.64914993 252.64919525 -49.36665924 253.36674988 -50.10591125 254.10604858 C-51.5815838 255.58161414 -53.05767658 257.05675943 -54.53393555 258.53173828 C-57.36019009 261.36051102 -60.18138305 264.19429006 -63.0025177 267.02816772 C-66.2484602 270.2875363 -69.49708576 273.54422511 -72.74584961 276.80078125 C-74.45248211 278.51244615 -76.1582165 280.22500701 -77.86303711 281.93847656 C-80.33988527 284.42753538 -82.82002072 286.91327871 -85.30078125 289.3984375 C-86.42931267 290.53471085 -86.42931267 290.53471085 -87.5806427 291.69393921 C-91.65134832 295.76506949 -95.80387021 299.67428297 -100.17321777 303.42401123 C-102.11851269 305.10224244 -104.01868851 306.82468474 -105.91796875 308.5546875 C-110.10430285 312.21300629 -114.59421299 315.19933751 -119.3125 318.125 C-120.15280762 318.64852051 -120.99311523 319.17204102 -121.85888672 319.71142578 C-127.73116947 323.32190984 -133.53749283 326.55998361 -140 329 C-140.62052246 329.23912109 -141.24104492 329.47824219 -141.88037109 329.72460938 C-171.35072587 340.99248163 -201.84447658 342.5532558 -231.34472656 330.00244141 C-246.46293587 322.99939378 -258.64872179 312.77287843 -270.59863281 301.33837891 C-271.80331013 300.1878491 -273.02148325 299.05147984 -274.2421875 297.91796875 C-290.26684414 282.6334067 -300.53924055 263.29696184 -306 242 C-306.26554687 241.00355469 -306.53109375 240.00710938 -306.8046875 238.98046875 C-313.45290671 207.87955284 -303.58845856 175.22795957 -287 149 C-278.70562776 136.4607196 -267.99435998 125.84343363 -257.41259766 115.25146484 C-256.27623593 114.11046168 -255.14006706 112.96926642 -254.0040741 111.82789612 C-250.94654222 108.75737392 -247.88579616 105.6900768 -244.82399797 102.62380934 C-242.90526676 100.70212824 -240.98711604 98.77986951 -239.06913376 96.85744095 C-233.05022921 90.82490256 -227.02935565 84.79433986 -221.00557005 78.76667535 C-214.08370879 71.84033018 -207.16844525 64.90748583 -200.25882494 57.96892965 C-194.8931474 52.5815725 -189.5216575 47.20005533 -184.14579618 41.82286036 C-180.94551819 38.62153972 -177.74766211 35.41789031 -174.55586624 32.20811081 C-171.55337641 29.18902901 -168.54366703 26.17732893 -165.52851295 23.17089653 C-164.43073432 22.07388209 -163.33546009 20.97435411 -162.24305916 19.87198448 C-155.61214681 13.18417882 -148.76400796 7.3481393 -141 2 C-139.45589566 0.85745376 -137.91386387 -0.28790524 -136.375 -1.4375 C-95.75376118 -29.5698001 -39.48367599 -31.52864438 0 0 Z " fill="#8798A5" transform="translate(310,169)"/>
<path d="M0 0 C26.7859892 22.85364804 45.91498375 50.55073705 49.58984375 86.35644531 C51.66668602 119.16406306 39.1037567 151.14445569 18.58984375 176.35644531 C11.39223606 184.51826596 3.80570539 192.2901209 -3.88916016 199.98071289 C-4.98966156 201.08421698 -6.08996154 202.18792197 -7.19007874 203.29180908 C-10.14002566 206.25047977 -13.09310263 209.20600589 -16.04709291 212.16063905 C-17.89859609 214.01285849 -19.74938314 215.86579048 -21.59992599 217.71896935 C-28.07224324 224.20049597 -34.54709488 230.679478 -41.02441406 237.15600586 C-47.03833139 243.16932106 -53.04663056 249.18820976 -59.05236304 255.2096985 C-64.23466034 260.4051013 -69.42083631 265.59661086 -74.61000955 270.78514594 C-77.69822575 273.87310837 -80.78490282 276.96257 -83.86766434 280.05597878 C-86.76401937 282.96206773 -89.66520739 285.86324595 -92.57005119 288.760849 C-93.62908955 289.81884863 -94.68645455 290.8785266 -95.74192619 291.94008446 C-103.03187317 299.26931039 -110.38598424 306.19749388 -119.41015625 311.35644531 C-120.85384308 312.4105235 -122.29109709 313.47345436 -123.72265625 314.54394531 C-148.65773257 332.04289353 -180.93080422 339.11322071 -210.92578125 334.10253906 C-227.22475485 330.6125122 -244.25613426 323.81084911 -257.41015625 313.35644531 C-257.90515625 311.87144531 -257.90515625 311.87144531 -258.41015625 310.35644531 C-259.72861931 309.66083235 -261.06525424 308.9994545 -262.41015625 308.35644531 C-271.45499847 300.96748094 -281.26114941 292.41188003 -287.41015625 282.35644531 C-287.41015625 281.69644531 -287.41015625 281.03644531 -287.41015625 280.35644531 C-288.07015625 280.35644531 -288.73015625 280.35644531 -289.41015625 280.35644531 C-291.35961325 277.826577 -292.86881007 274.98997 -294.47265625 272.23144531 C-294.93220703 271.47089844 -295.39175781 270.71035156 -295.86523438 269.92675781 C-300.59973564 261.86211543 -300.59973564 261.86211543 -300.41015625 257.35644531 C-298.3828125 254.61035156 -298.3828125 254.61035156 -295.47265625 251.91894531 C-294.9619458 251.43723877 -294.45123535 250.95553223 -293.92504883 250.45922852 C-290.6041428 247.35119439 -287.16276421 244.38269468 -283.70703125 241.42675781 C-276.00208827 234.48182622 -268.65504492 227.00890966 -261.93359375 219.11035156 C-259.27098291 216.0449355 -256.51570904 212.97854793 -253.41015625 210.35644531 C-252.75015625 210.35644531 -252.09015625 210.35644531 -251.41015625 210.35644531 C-251.15621094 211.51402344 -250.90226562 212.67160156 -250.640625 213.86425781 C-250.29337671 215.40341241 -249.94569758 216.94246985 -249.59765625 218.48144531 C-249.43201172 219.24199219 -249.26636719 220.00253906 -249.09570312 220.78613281 C-245.04416216 238.52118007 -230.9895146 252.72201542 -216.22265625 262.45800781 C-203.77073568 270.25942362 -190.71327831 273.04506675 -176.22265625 270.35644531 C-165.65216573 267.68613514 -157.01521466 262.2015048 -149.19854736 254.78512573 C-148.63942508 254.26153752 -148.0803028 253.73794931 -147.50423741 253.19849479 C-141.84173882 247.87204126 -136.30417224 242.42022749 -130.79589844 236.93505859 C-129.70531111 235.85240659 -128.61455665 234.76992293 -127.52365112 233.68759155 C-123.99785607 230.18758079 -120.47711063 226.68251563 -116.95703125 223.17675781 C-115.73229378 221.95739458 -114.50755469 220.73803297 -113.28281403 219.51867294 C-108.18630755 214.4437146 -103.09120865 209.36735002 -97.99979782 204.28727913 C-90.76011091 197.06384026 -83.51203574 189.84905751 -76.25209308 182.64597523 C-71.11252728 177.54527193 -65.98273462 172.43486674 -60.85992932 167.31733119 C-57.81486943 164.27589701 -54.76590371 161.23865726 -51.70632172 158.21182632 C-48.82882037 155.3647022 -45.96378172 152.50557453 -43.1072731 149.63739395 C-42.06725613 148.59715883 -41.02307581 147.56106372 -39.97409439 146.52986908 C-25.88953571 132.67094111 -14.57440812 115.47970316 -14.37890625 95.09863281 C-15.20159566 77.69875169 -24.01396593 64.05402444 -36.41015625 52.35644531 C-47.5100509 42.88474396 -60.34570581 36.73302633 -75.14453125 37.17285156 C-96.96611427 38.94115226 -112.26546126 51.55417711 -126.9296875 66.48535156 C-128.16575562 67.72890317 -129.40272703 68.9715575 -130.64054871 70.21336365 C-133.85679927 73.44470478 -137.06084061 76.68788027 -140.26226807 79.93389893 C-143.54694349 83.25988973 -146.84332949 86.57423201 -150.13867188 89.88964844 C-156.57384468 96.3673985 -162.99614649 102.85774441 -169.41015625 109.35644531 C-172.36037886 108.21864615 -175.00907384 107.02371332 -177.78515625 105.48144531 C-183.94143711 102.35666639 -190.73437076 100.95467362 -197.41015625 99.35644531 C-198.35890625 99.12699219 -199.30765625 98.89753906 -200.28515625 98.66113281 C-217.03495956 94.9447702 -234.12403584 100.34096882 -250.41015625 104.35644531 C-250.41015625 99.74245459 -250.03335047 99.47862391 -246.94248962 96.38084412 C-246.17323654 95.60031174 -245.40398346 94.81977936 -244.61141968 94.01559448 C-243.75601593 93.16828766 -242.90061218 92.32098083 -242.01928711 91.44799805 C-240.68017525 90.09837227 -240.68017525 90.09837227 -239.31401062 88.72148132 C-236.85960685 86.24880408 -234.3926676 83.7889966 -231.92279506 81.3317821 C-229.32929553 78.74842339 -226.74558687 76.15530208 -224.16029358 73.56373596 C-219.80503993 69.20119476 -215.44140365 64.84717144 -211.07299805 60.49780273 C-206.05453236 55.50095782 -201.050436 50.49007122 -196.05385298 45.47135204 C-191.74685913 41.14605506 -187.43192875 36.82879193 -183.11058146 32.5178352 C-180.53775751 29.95118452 -177.96755954 27.38206021 -175.40452385 24.80563164 C-164.6943512 14.04720091 -154.1275871 3.72827377 -141.41015625 -4.64355469 C-140.7774113 -5.06254154 -140.14466635 -5.4815284 -139.49274731 -5.91321182 C-96.12859258 -34.58263132 -40.1379725 -33.50669899 0 0 Z " fill="#8798A5" transform="translate(458.41015625,30.6435546875)"/>
</svg>
